<?xml version="1.0" standalone="no"?>
<!DOCTYPE svg PUBLIC "-//W3C//DTD SVG 20010904//EN"
 "http://www.w3.org/TR/2001/REC-SVG-20010904/DTD/svg10.dtd">
<svg version="1.0" xmlns="http://www.w3.org/2000/svg"
 width="2370.000000pt" height="2371.000000pt" viewBox="0 0 2370.000000 2371.000000"
 preserveAspectRatio="xMidYMid meet">

<g transform="translate(0.000000,2371.000000) scale(0.100000,-0.100000)"
fill="#000000" stroke="none">
<path d="M11430 23707 c-3 -2 -81 -7 -175 -11 -1048 -41 -2264 -276 -3297
-637 -1515 -530 -2857 -1328 -4068 -2418 -168 -152 -715 -703 -864 -871 -568
-639 -1039 -1292 -1463 -2025 -202 -348 -469 -889 -640 -1295 -540 -1282 -854
-2688 -910 -4075 -14 -337 -7 -1123 11 -1275 2 -14 6 -72 10 -130 12 -186 48
-533 81 -765 315 -2241 1255 -4323 2729 -6050 196 -230 398 -447 631 -680
1893 -1895 4351 -3084 7005 -3390 170 -19 433 -43 570 -50 58 -4 123 -9 145
-12 71 -9 1086 -12 1235 -3 196 11 332 21 328 25 -2 1 -46 5 -98 9 -151 11
-317 35 -420 61 -129 32 -161 46 -90 37 110 -14 683 -3 710 13 3 1 50 6 106
10 55 4 116 10 135 14 31 7 32 8 14 18 -13 6 -47 7 -95 2 -41 -4 -136 -10
-210 -14 -74 -4 -140 -8 -147 -10 -75 -24 -1583 -24 -1710 -1 -10 2 -79 7
-153 11 -74 4 -141 8 -150 10 -8 1 -53 6 -100 10 -134 11 -388 53 -468 77 -69
20 -72 22 -50 33 33 17 197 34 393 40 94 3 195 7 225 10 30 2 91 7 135 10 285
21 660 86 995 171 146 38 442 125 438 130 -4 3 -174 31 -308 49 l-105 14 110
-4 c61 -3 182 -8 271 -11 l160 -7 95 42 c52 22 109 41 127 41 19 0 80 -18 136
-40 57 -22 109 -38 117 -36 8 2 50 7 94 10 98 7 154 14 223 27 l53 11 -318
158 c-321 159 -345 174 -394 253 l-24 37 -200 5 c-304 8 -491 31 -635 77 -96
31 -120 45 -120 71 0 56 -112 129 -367 241 -224 98 -266 120 -313 163 -63 56
-53 93 35 137 58 29 157 57 300 86 55 11 111 22 125 26 18 4 -14 -34 -115
-135 -120 -121 -136 -141 -115 -142 14 0 32 -2 40 -3 8 -2 98 -6 200 -10 102
-4 221 -9 265 -11 187 -10 300 -15 460 -21 94 -3 176 -7 184 -10 8 -2 11 1 8
8 -58 138 -166 416 -205 528 -75 214 -76 215 -119 233 -21 8 -85 25 -143 37
-58 12 -118 25 -134 28 -20 5 14 14 124 31 93 15 145 28 134 32 -10 3 -86 23
-169 43 -157 38 -278 88 -283 118 -7 35 101 73 313 111 l130 24 1 42 c2 54 13
65 104 110 127 63 523 314 508 322 -19 10 -290 89 -307 89 -8 0 -93 -46 -189
-101 -207 -121 -245 -140 -337 -168 -64 -20 -85 -21 -260 -17 -193 6 -346 24
-445 52 -116 33 -625 196 -728 233 -59 21 -197 75 -308 119 -110 44 -334 130
-497 191 -475 177 -720 278 -1072 441 -105 48 -244 107 -310 130 -125 45 -749
291 -846 334 -31 13 -70 38 -87 55 -63 63 -583 1092 -702 1391 -23 58 -86 229
-140 380 -54 151 -135 374 -180 495 -188 507 -256 718 -469 1443 -72 244 -133
472 -136 505 -8 83 11 120 85 160 30 17 100 68 155 115 280 236 605 457 995
677 231 130 359 215 760 505 805 583 927 685 1501 1252 246 244 260 259 367
418 188 280 326 464 355 474 27 10 134 -18 617 -160 159 -46 478 -124 511
-124 26 0 25 55 -1 98 -21 33 -131 112 -158 112 -9 0 -13 3 -10 6 3 3 67 -11
141 -32 114 -31 143 -35 191 -30 31 4 56 10 56 14 0 4 -112 35 -248 69 -136
35 -372 99 -522 143 -151 44 -342 99 -425 121 -82 23 -160 47 -172 55 -30 19
-49 58 -123 254 -186 492 -350 1049 -421 1430 -40 219 -99 437 -208 775 -234
725 -329 991 -537 1511 -68 171 -124 323 -124 338 0 38 11 56 104 171 121 151
190 220 311 310 61 46 148 122 195 170 113 116 267 252 545 481 127 104 295
245 375 313 80 68 311 259 514 425 204 165 425 354 493 418 106 101 262 231
461 385 l53 41 -53 16 c-29 8 -66 18 -81 22 -54 13 -19 14 76 3 l96 -12 58 44
c31 24 102 81 156 126 102 83 143 103 208 97 260 -23 398 -35 514 -44 272 -22
616 -88 997 -194 137 -38 569 -139 572 -134 19 33 64 82 82 90 56 26 18 82
-155 231 -87 75 -157 160 -146 177 3 4 103 -33 222 -82 328 -135 861 -353
1012 -415 73 -30 134 -53 136 -51 4 6 -462 450 -540 514 -114 93 -313 224
-431 283 -110 55 -266 110 -384 136 -92 20 -344 30 -423 17 l-57 -9 -90 58
c-49 32 -109 76 -133 99 -91 83 -66 110 99 111 138 0 272 -17 799 -102 536
-87 817 -108 910 -70 l30 13 -60 55 c-139 127 -319 246 -465 306 -141 59 -240
79 -542 112 -253 27 -408 71 -595 166 -99 51 -323 193 -323 206 0 2 10 1 23
-3 12 -4 29 -9 37 -11 8 -3 -12 11 -45 32 -145 88 -194 129 -236 194 -48 74
-36 135 38 202 73 66 174 115 488 236 94 36 182 70 196 76 22 9 31 6 61 -16
45 -35 131 -72 231 -101 75 -22 84 -22 122 -9 74 26 238 61 465 98 561 91 740
141 780 215 30 56 -44 142 -190 219 l-82 44 -90 -7 c-50 -4 -106 -9 -127 -11
-43 -6 -580 -53 -697 -62 -48 -3 -84 -2 -87 4 -15 25 33 70 119 112 49 23 97
50 107 59 46 41 0 81 -144 126 -146 46 -262 69 -479 96 -96 12 -197 24 -225
28 l-49 7 86 53 c231 141 431 200 568 168 35 -8 66 -13 69 -10 11 10 -58 67
-114 94 -143 67 -479 139 -770 165 -38 3 -83 8 -100 10 -53 8 -258 24 -333 26
-40 1 -75 6 -78 10 -2 4 29 13 71 20 72 12 84 19 47 27 -26 5 -1006 15 -1012
9z m1020 -161 c19 -2 85 -7 145 -10 154 -10 437 -34 580 -51 66 -8 166 -20
223 -27 56 -6 102 -15 102 -19 0 -15 -76 -28 -230 -39 -307 -21 -603 -54 -790
-86 -235 -41 -656 -164 -835 -244 -100 -45 -126 -48 -410 -54 -578 -13 -769
-18 -808 -21 -23 -2 -91 -6 -152 -10 -60 -3 -121 -8 -135 -10 -14 -2 -65 -6
-115 -10 -192 -13 -513 -55 -775 -101 -199 -34 -371 -73 -660 -149 -135 -35
-375 -96 -535 -136 -567 -140 -768 -205 -1152 -375 -117 -52 -247 -108 -290
-125 -102 -41 -343 -129 -352 -129 -12 0 -64 171 -54 180 16 16 402 211 603
305 896 422 1797 720 2740 909 411 82 923 153 1320 182 47 3 99 7 115 9 17 2
111 7 210 11 99 3 182 9 185 11 6 6 1018 -5 1070 -11z m-1265 -696 c29 -24 52
-87 69 -191 9 -53 39 -197 66 -320 138 -618 149 -679 165 -894 3 -49 19 -193
35 -320 44 -346 69 -686 56 -739 -4 -17 -60 -66 -179 -157 -261 -201 -393
-308 -737 -599 -355 -300 -587 -492 -1035 -855 -353 -286 -610 -505 -805 -685
-267 -247 -671 -643 -700 -686 -51 -73 -105 -104 -205 -118 -22 -3 -155 -17
-295 -31 -363 -36 -400 -40 -695 -75 -44 -5 -105 -12 -135 -15 -30 -4 -66 -8
-80 -10 -14 -2 -54 -6 -90 -10 -36 -3 -81 -8 -100 -10 -19 -3 -125 -14 -235
-25 -183 -19 -448 -54 -499 -65 -12 -3 -102 -14 -201 -25 -246 -28 -246 -28
-455 -45 -102 -9 -212 -18 -245 -21 -128 -10 -213 -18 -415 -39 -222 -24 -330
-30 -505 -30 l-159 0 -22 33 c-55 81 -196 619 -224 852 -6 52 -13 115 -16 140
-7 61 -7 574 1 680 17 242 37 307 114 368 87 70 197 187 398 427 110 132 279
324 374 426 241 256 669 708 938 989 124 130 262 276 306 325 156 176 209 231
304 319 328 302 796 561 1306 721 83 26 202 67 266 90 151 56 383 126 584 175
345 85 960 219 1350 294 103 20 475 82 540 91 28 3 61 8 75 10 23 3 90 8 280
21 41 2 104 7 140 11 250 23 634 19 665 -7z m-8235 -3773 c41 -43 102 -96 135
-118 65 -43 167 -79 222 -79 l34 0 -6 -97 c-4 -54 -10 -150 -14 -213 -5 -63
-7 -173 -5 -244 3 -117 6 -167 19 -311 3 -27 7 -86 11 -130 13 -191 51 -389
140 -749 73 -295 72 -314 -22 -513 -137 -290 -285 -706 -469 -1318 -53 -176
-135 -439 -182 -585 -151 -468 -174 -542 -213 -695 -63 -242 -136 -638 -156
-850 -3 -38 -8 -72 -9 -75 -2 -3 -6 -48 -10 -100 -4 -52 -9 -104 -12 -115 -2
-11 -8 -189 -13 -395 -7 -314 -6 -389 6 -460 20 -111 13 -144 -34 -174 -192
-121 -828 -549 -902 -606 -251 -195 -569 -556 -654 -744 -39 -86 -107 -176
-189 -249 -110 -99 -309 -257 -322 -257 -8 0 -17 29 -24 73 -6 39 -18 115 -26
167 -12 78 -34 257 -60 495 -2 22 -7 78 -10 125 -4 47 -8 99 -10 115 -2 17 -7
91 -10 165 -4 74 -8 151 -11 170 -5 45 -5 977 0 1010 2 14 7 95 11 182 3 86 8
167 10 180 2 12 6 66 10 118 8 114 9 133 36 375 145 1341 525 2638 1134 3870
386 781 789 1418 1307 2067 l121 151 46 -54 c25 -30 79 -89 121 -132z m-380
-7509 c396 -555 639 -832 1175 -1338 355 -335 540 -493 826 -707 96 -72 239
-183 319 -246 80 -64 156 -119 169 -122 40 -10 80 -44 100 -83 21 -41 149
-530 218 -832 90 -395 183 -702 350 -1155 47 -126 96 -266 110 -310 26 -84
135 -354 208 -515 23 -52 57 -133 75 -180 18 -47 88 -197 155 -335 67 -137
148 -315 180 -395 84 -213 242 -527 335 -670 101 -153 104 -161 85 -206 -37
-89 -281 -416 -413 -555 -137 -144 -287 -259 -687 -526 -112 -75 -434 -251
-445 -244 -3 2 -19 9 -36 15 -29 11 -331 213 -784 526 -250 173 -504 336 -748
479 -153 90 -268 152 -629 342 -50 26 -144 78 -208 115 l-116 67 -347 446
c-191 245 -365 471 -388 501 -120 163 -244 366 -449 735 -153 275 -186 331
-325 545 -187 287 -195 313 -204 635 -9 312 -16 517 -22 610 -3 44 -9 296 -14
560 -8 425 -16 570 -45 810 -3 22 -14 128 -25 235 -12 107 -30 240 -41 295
-24 126 -24 181 0 249 24 68 56 115 166 241 320 367 652 671 949 873 80 53
415 232 436 232 3 0 34 -41 70 -92z m503 -7214 c84 -43 525 -296 742 -427 240
-145 412 -256 682 -443 111 -76 261 -179 334 -229 293 -198 384 -281 690 -625
86 -96 205 -227 264 -290 59 -63 167 -187 239 -276 192 -236 450 -562 454
-574 8 -24 -52 -6 -147 45 -790 423 -1570 969 -2257 1580 -410 364 -1114 1096
-1114 1158 0 19 46 107 56 107 2 0 28 -12 57 -26z m8684 -3600 c-3 -3 -12 -4
-19 -1 -8 3 -5 6 6 6 11 1 17 -2 13 -5z"/>
<path d="M14980 21542 c0 -4 137 -96 305 -203 l305 -194 0 -442 0 -442 -301
-188 c-165 -103 -302 -192 -302 -198 -3 -14 2265 -19 2573 -6 439 19 672 82
798 214 77 82 98 169 66 278 -13 44 -28 66 -82 119 -76 74 -161 120 -312 168
-73 23 -309 76 -368 83 -4 0 48 11 116 24 287 54 455 136 514 249 16 29 22 59
23 106 1 199 -201 345 -579 418 -70 13 -260 16 -1418 19 -736 2 -1338 0 -1338
-5z m2330 -325 c79 -31 120 -85 120 -159 0 -49 -26 -98 -66 -124 -56 -37 -135
-44 -521 -44 l-373 0 0 176 0 175 398 -3 c347 -3 403 -6 442 -21z m86 -706
c55 -31 84 -84 84 -150 0 -93 -40 -136 -155 -166 -48 -12 -131 -15 -457 -15
l-398 0 0 180 0 181 443 -3 442 -3 41 -24z"/>
<path d="M13935 19734 c49 -14 197 -58 329 -100 185 -57 241 -72 248 -62 28
45 -23 82 -158 117 -80 20 -431 72 -482 70 -15 0 13 -12 63 -25z"/>
<path d="M20944 19361 c-18 -16 -40 -33 -50 -39 -15 -9 -7 -22 73 -118 479
-578 923 -1256 1247 -1903 172 -342 294 -676 366 -1000 35 -158 155 -885 194
-1181 9 -63 23 -166 31 -229 22 -165 54 -445 61 -537 3 -44 9 -131 14 -194 8
-119 5 -616 -5 -705 -3 -27 -17 -158 -31 -290 l-25 -240 -35 -52 c-117 -171
-422 -498 -619 -665 -155 -130 -646 -516 -739 -580 l-90 -62 -40 45 c-240 264
-506 547 -608 645 -120 115 -529 484 -568 511 -10 7 -92 22 -182 33 -439 52
-520 61 -522 58 -39 -70 -80 -175 -79 -204 3 -89 106 -141 498 -250 72 -20
136 -40 143 -44 23 -11 -96 -57 -183 -70 -120 -18 -359 2 -705 60 -71 11 -111
16 -245 30 -60 6 -128 12 -150 15 -22 2 -101 4 -176 4 l-135 1 -18 37 c-56
118 -197 221 -385 282 -225 73 -388 81 -1804 81 -880 0 -1168 -3 -1165 -12 2
-6 138 -96 301 -201 l297 -189 0 -443 0 -442 -300 -189 c-165 -104 -300 -195
-300 -202 0 -10 212 -12 1043 -10 611 2 1042 7 1042 12 0 5 -136 95 -302 200
l-303 191 0 118 0 117 259 0 c370 0 419 -13 504 -135 48 -69 163 -291 224
-432 l32 -73 590 0 c469 0 591 3 591 13 0 7 -90 66 -199 131 l-199 120 -29 60
c-109 233 -262 375 -483 451 l-65 23 40 7 c125 22 238 48 295 67 152 49 270
129 312 211 17 34 22 38 46 32 36 -9 116 -22 177 -30 28 -3 190 -8 360 -10
546 -8 641 -22 677 -101 10 -22 6 -29 -49 -86 -81 -86 -146 -186 -185 -288
-31 -82 -32 -90 -33 -240 0 -134 3 -166 24 -240 53 -188 132 -357 331 -705
128 -225 217 -464 300 -805 l30 -125 -35 -70 c-80 -161 -282 -372 -425 -445
-30 -15 -45 -16 -100 -8 -38 5 -244 7 -495 4 -387 -6 -431 -8 -442 -23 -22
-29 -15 -50 28 -87 50 -43 151 -83 424 -171 260 -83 335 -116 335 -145 0 -59
-41 -79 -233 -114 -163 -31 -206 -33 -281 -17 -49 11 -60 11 -67 -1 -20 -30
-7 -44 79 -82 95 -43 216 -115 302 -181 198 -151 526 -325 765 -404 142 -48
344 -98 414 -103 18 -1 34 -5 36 -8 2 -3 -60 -6 -138 -8 -154 -2 -421 -13
-424 -16 -1 -1 57 -43 130 -94 73 -50 178 -127 234 -171 l103 -80 14 27 c34
66 214 449 268 572 119 269 276 685 403 1070 32 96 84 249 117 340 97 269 146
481 182 790 13 110 21 202 41 500 11 152 30 393 40 499 10 104 37 130 440 443
258 201 374 301 813 700 l284 258 27 -19 c126 -90 612 -679 657 -797 16 -41
19 -76 19 -204 0 -146 -13 -448 -20 -460 -1 -3 -6 -58 -9 -123 -4 -65 -9 -126
-11 -135 -1 -9 -6 -53 -9 -97 -4 -44 -9 -91 -11 -105 -2 -14 -9 -70 -15 -125
-16 -149 -57 -425 -95 -650 -249 -1456 -794 -2885 -1588 -4165 -239 -386 -689
-1012 -809 -1127 -46 -44 -710 -433 -739 -433 -3 0 -5 215 -4 477 0 263 -3
504 -7 535 -4 32 -17 116 -27 187 -11 71 -30 223 -41 338 -12 114 -25 211 -29
215 -5 6 -148 -27 -159 -37 -1 -1 7 -55 18 -121 10 -65 24 -159 30 -209 6 -49
12 -103 14 -120 3 -16 7 -61 11 -100 3 -38 8 -88 10 -110 2 -22 7 -87 10 -145
3 -58 7 -139 10 -180 2 -41 7 -178 10 -305 11 -408 14 -478 22 -485 4 -4 53
-31 108 -60 106 -56 200 -113 276 -167 l46 -33 110 122 c518 580 898 1093
1340 1808 365 591 746 1393 1006 2115 272 756 486 1625 582 2355 3 25 8 56 10
70 5 24 39 331 50 450 3 30 8 71 10 90 2 19 7 85 11 145 3 61 8 124 10 140 18
146 25 924 11 1255 -8 201 -10 235 -33 505 -108 1292 -439 2581 -971 3785 -82
185 -369 775 -392 805 -4 5 -26 44 -48 85 -212 394 -499 850 -791 1255 -131
182 -458 595 -470 595 -4 0 -21 -13 -38 -29z m-3624 -6913 c104 -27 140 -71
140 -171 0 -98 -55 -148 -185 -166 -39 -6 -231 -11 -427 -11 l-358 0 0 186 0
186 388 -5 c294 -3 400 -8 442 -19z"/>
<path d="M15040 17163 c0 -5 138 -95 305 -201 l305 -193 0 -437 0 -437 -305
-194 c-168 -107 -305 -198 -305 -202 0 -5 464 -9 1031 -9 709 0 1030 3 1027
10 -2 6 -136 96 -298 199 l-295 188 -2 444 -3 444 300 190 c165 105 300 193
300 198 0 4 -463 7 -1030 7 -566 0 -1030 -3 -1030 -7z"/>
<path d="M16465 8470 c-496 -51 -963 -245 -1227 -513 -253 -256 -259 -566 -14
-813 270 -273 784 -456 1359 -483 617 -30 1109 90 1363 332 184 174 214 422
63 532 -17 14 -36 22 -40 19 -5 -3 -9 -28 -9 -55 0 -192 -252 -357 -655 -430
-100 -18 -159 -22 -355 -22 -406 -1 -619 53 -756 189 -88 88 -124 189 -124
349 0 312 151 483 490 555 86 19 373 24 500 10 372 -41 661 -176 871 -408 35
-40 67 -72 72 -72 4 0 7 178 7 395 0 217 -3 395 -7 395 -5 0 -77 -40 -162 -89
l-153 -89 -57 25 c-159 71 -365 129 -561 158 -126 19 -479 27 -605 15z"/>
<path d="M11168 6405 c-246 -35 -444 -108 -638 -235 -413 -272 -439 -657 -63
-927 421 -301 1110 -344 1612 -100 206 100 354 229 418 363 49 102 57 214 24
322 -75 248 -412 483 -810 563 -129 26 -410 34 -543 14z m364 -270 c143 -50
219 -202 220 -441 1 -190 -41 -306 -140 -381 -59 -45 -128 -63 -237 -63 -151
0 -253 44 -313 136 -46 68 -63 133 -69 260 -15 294 89 466 307 508 47 9 185
-2 232 -19z"/>
<path d="M13655 6414 c-579 -44 -945 -238 -884 -468 33 -124 181 -204 420
-226 102 -10 253 -1 281 16 5 3 -7 24 -26 46 -51 60 -68 102 -67 169 1 101 59
178 160 215 61 22 290 31 374 14 125 -24 187 -78 187 -161 0 -62 -15 -93 -77
-150 -83 -78 -175 -125 -453 -234 -379 -148 -623 -306 -784 -506 -36 -46 -66
-87 -66 -91 0 -4 482 -8 1070 -8 l1070 0 0 325 c0 179 -3 325 -8 325 -4 0
-103 -83 -220 -185 l-213 -185 -517 0 -517 1 100 39 c55 22 246 87 425 145
726 238 824 275 904 346 74 64 94 153 55 239 -65 144 -335 268 -689 316 -105
14 -431 25 -525 18z"/>
<path d="M8389 6135 l-104 -165 -231 0 -231 0 -47 -70 c-25 -38 -46 -72 -46
-75 0 -3 99 -5 220 -5 121 0 220 -3 220 -7 0 -5 -28 -55 -63 -113 l-62 -105
-237 -3 -237 -2 -45 -66 c-25 -36 -46 -69 -46 -74 0 -6 91 -10 230 -10 127 0
230 -2 230 -5 0 -2 -43 -72 -95 -153 -52 -82 -95 -154 -95 -161 0 -8 63 -11
223 -11 l222 1 100 164 100 165 193 0 c152 0 192 -3 186 -12 -4 -7 -47 -77
-96 -155 -48 -78 -88 -147 -88 -153 0 -7 70 -10 216 -8 l216 3 102 162 101
162 265 3 264 3 37 65 c21 36 38 68 38 73 1 4 -109 7 -244 7 -161 0 -245 4
-245 10 0 6 27 58 61 115 l61 105 257 0 257 0 32 65 c18 36 32 70 32 75 0 6
-90 10 -240 10 -132 0 -240 4 -240 8 0 4 41 74 90 155 50 81 90 152 90 157 0
6 -83 10 -213 10 l-213 0 -98 -165 -98 -165 -189 0 c-184 0 -189 1 -179 19 5
11 48 81 95 155 47 75 85 140 85 146 0 6 -77 10 -218 10 l-219 0 -104 -165z
m621 -326 c0 -6 -28 -58 -62 -115 l-63 -104 -198 0 c-109 0 -197 4 -195 9 2 4
35 56 73 115 l70 106 188 0 c128 0 187 -3 187 -11z"/>
<path d="M14980 4042 c0 -5 137 -95 305 -202 l305 -194 -2 -440 -3 -439 -299
-191 c-164 -105 -299 -195 -300 -201 -1 -13 1934 -19 1947 -6 4 4 -94 93 -227
202 l-236 194 0 133 0 132 473 -2 472 -3 3 -127 3 -126 -235 -194 c-129 -106
-235 -199 -235 -205 -1 -10 200 -13 974 -13 773 0 975 3 975 13 0 6 -135 98
-300 202 l-300 190 0 442 0 441 297 190 c163 104 299 194 301 200 3 9 -234 12
-972 12 -584 0 -976 -4 -976 -9 0 -5 106 -96 235 -203 l235 -193 0 -92 0 -93
-475 0 -475 0 0 94 0 94 234 193 c129 107 232 197 230 201 -7 11 -1954 10
-1954 0z"/>
</g>
</svg>
